# xmcd
#
# Track frame offsets:
#	150
#	12213
#	21240
#	32835
#	46255
#	56380
#	65945
#	74945
#	85725
#	95465
#	106898
#	116585
#	129110
#	141928
#	153280
#	161978
#	173208
#	182825
#	195885
#	206893
#
# Disc length: 2883 seconds
#
# Revision: 0
# Processed by: cddbd v1.4PL0 Copyright (c) Steve Scherf et al.
# Submitted via: dBpowerAMP V4.0
#
DISCID=1b0b4114
DTITLE=Nat King Cole - Coleccion Sony Music Estelar
DYEAR=1993
DGENRE=Big Band
TTITLE0=Te Quiero Dijiste
TTITLE1=Aqui Se Habla En Amor
TTITLE2=Los Chiapanecas
TTITLE3=No Me Platiques
TTITLE4=Ay Cosita Linda
TTITLE5=A Media Luz
TTITLE6=Guadalajara
TTITLE7=El Bodeguero
TTITLE8=El Choclo
TTITLE9=Noche De Ronda
TTITLE10=Piel Canela
TTITLE11=Cachito
TTITLE12=Adios Mariquita Linda
TTITLE13=Nadie Me Ama
TTITLE14=Fantastico
TTITLE15=Vaya Con Dios
TTITLE16=Adelita
TTITLE17=La Golondrina
TTITLE18=Capullito de Aleli
TTITLE19=Tres Palabras
EXTD=
EXTT0=
EXTT1=
EXTT2=
EXTT3=
EXTT4=
EXTT5=
EXTT6=
EXTT7=
EXTT8=
EXTT9=
EXTT10=
EXTT11=
EXTT12=
EXTT13=
EXTT14=
EXTT15=
EXTT16=
EXTT17=
EXTT18=
EXTT19=
PLAYORDER=
